<svg width="64" height="64" viewBox="0 0 64 64" fill="none" xmlns="http://www.w3.org/2000/svg">
  <rect x="6" y="6" width="52" height="52" rx="14" fill="url(#finderBg)"/>
  <path d="M32 6H44C51.732 6 58 12.268 58 20V44C58 51.732 51.732 58 44 58H32V6Z" fill="#C9ECFF"/>
  <path d="M32 6H20C12.268 6 6 12.268 6 20V44C6 51.732 12.268 58 20 58H32V6Z" fill="#5DBBFF"/>
  <path d="M32 18V46" stroke="#17395C" stroke-width="2.2" stroke-linecap="round"/>
  <path d="M18.5 24.5H24.5" stroke="#17395C" stroke-width="2.6" stroke-linecap="round"/>
  <path d="M39.5 24.5H45.5" stroke="#17395C" stroke-width="2.6" stroke-linecap="round"/>
  <path d="M22 39C24.7 35.8 28.1 34.2 32 34.2C35.9 34.2 39.3 35.8 42 39" stroke="#17395C" stroke-width="2.6" stroke-linecap="round"/>
  <defs>
    <linearGradient id="finderBg" x1="10" y1="8" x2="54" y2="58" gradientUnits="userSpaceOnUse">
      <stop stop-color="#8BD4FF"/>
      <stop offset="1" stop-color="#4AA8FF"/>
    </linearGradient>
  </defs>
</svg>
