<svg width="64" height="64" viewBox="0 0 64 64" fill="none" xmlns="http://www.w3.org/2000/svg">
  <rect x="6" y="6" width="52" height="52" rx="14" fill="url(#messagesBg)"/>
  <path d="M18 18H36C42.627 18 48 23.373 48 30V37.2C48 43.827 42.627 49.2 36 49.2H27.2L20 54V49.2H18C11.373 49.2 6 43.827 6 37.2V30C6 23.373 11.373 18 18 18Z" fill="white" fill-opacity="0.94" transform="translate(5 0)"/>
  <path d="M22 22H39C44.523 22 49 26.477 49 32V37.8C49 43.323 44.523 47.8 39 47.8H31L24 52V47.8H22C16.477 47.8 12 43.323 12 37.8V32C12 26.477 16.477 22 22 22Z" fill="#F8FFF8"/>
  <path d="M24 31.5H40" stroke="#45C56B" stroke-width="2.6" stroke-linecap="round"/>
  <path d="M24 37.5H34" stroke="#45C56B" stroke-width="2.6" stroke-linecap="round"/>
  <defs>
    <linearGradient id="messagesBg" x1="10" y1="8" x2="55" y2="58" gradientUnits="userSpaceOnUse">
      <stop stop-color="#6EE887"/>
      <stop offset="1" stop-color="#2DBD56"/>
    </linearGradient>
  </defs>
</svg>
