<svg width="64" height="64" viewBox="0 0 64 64" fill="none" xmlns="http://www.w3.org/2000/svg">
  <rect x="8" y="8" width="48" height="48" rx="14" fill="#F9FBFF"/>
  <circle cx="32" cy="32" r="7" fill="#FFCA3A"/>
  <path d="M32 14C38 14 42 19 42 24C42 28.2 38.7 31.4 32 32C25.3 31.4 22 28.2 22 24C22 19 26 14 32 14Z" fill="#FF5A7A"/>
  <path d="M50 32C50 38 45 42 40 42C35.8 42 32.6 38.7 32 32C32.6 25.3 35.8 22 40 22C45 22 50 26 50 32Z" fill="#38A4FF"/>
  <path d="M32 50C26 50 22 45 22 40C22 35.8 25.3 32.6 32 32C38.7 32.6 42 35.8 42 40C42 45 38 50 32 50Z" fill="#45D68A"/>
  <path d="M14 32C14 26 19 22 24 22C28.2 22 31.4 25.3 32 32C31.4 38.7 28.2 42 24 42C19 42 14 38 14 32Z" fill="#AF75FF"/>
</svg>
